<?xml version="1.0" standalone="no"?>
<!DOCTYPE svg PUBLIC "-//W3C//DTD SVG 20010904//EN"
 "http://www.w3.org/TR/2001/REC-SVG-20010904/DTD/svg10.dtd">
<svg version="1.0" xmlns="http://www.w3.org/2000/svg"
 width="1024.000000pt" height="1024.000000pt" viewBox="0 0 1024.000000 1024.000000"
 preserveAspectRatio="xMidYMid meet">
<metadata>
Created by potrace 1.14, written by Peter Selinger 2001-2017
</metadata>
<g transform="translate(0.000000,1024.000000) scale(0.100000,-0.100000)"
fill="#000000" stroke="none">
<path d="M3249 9606 c-3 -3 -55 -8 -115 -10 -60 -3 -133 -10 -162 -16 -30 -7
-59 -13 -65 -14 -22 -5 -102 -27 -117 -33 -8 -3 -20 -7 -27 -9 -7 -1 -59 -24
-115 -52 -205 -98 -373 -243 -510 -438 -38 -54 -136 -246 -143 -279 -2 -11
-11 -40 -19 -64 -9 -25 -18 -56 -21 -70 -3 -14 -7 -37 -10 -51 -3 -14 -9 -45
-13 -70 -9 -61 -9 -7318 1 -7350 4 -14 9 -37 12 -52 3 -15 24 -64 47 -110 58
-115 161 -218 276 -276 46 -23 91 -42 101 -42 10 0 21 -3 24 -7 11 -11 76 -17
182 -17 106 0 230 29 269 63 10 9 20 14 22 11 2 -3 31 15 65 40 133 96 215
222 256 390 10 42 19 232 11 245 -3 6 -2 19 2 30 4 11 4 30 -1 41 -4 12 -5 25
-2 28 8 8 9 76 1 76 -4 0 -3 12 1 28 5 15 5 36 1 47 -4 11 -5 24 -2 29 8 14 8
76 0 76 -4 0 -3 13 2 28 4 16 4 35 -1 43 -4 8 -4 21 1 29 4 7 4 23 0 36 -5 12
-6 25 -3 28 7 7 8 130 1 142 -3 5 -2 18 2 29 4 11 4 32 -1 48 -4 15 -5 27 -1
27 4 0 7 16 7 35 0 19 -3 35 -7 35 -4 0 -3 13 2 30 5 17 5 32 0 35 -5 3 -5 16
-1 28 5 12 5 34 1 48 -4 15 -4 32 0 39 4 7 4 26 0 41 -5 16 -5 31 0 34 5 3 5
18 0 34 -4 16 -6 32 -3 35 7 7 8 210 1 222 -3 5 -2 18 2 29 4 11 4 32 -1 48
-4 15 -5 27 -1 27 4 0 7 16 7 35 0 19 -3 35 -7 35 -4 0 -3 13 2 30 5 16 5 32
0 35 -5 3 -5 18 -1 33 5 15 5 36 1 47 -4 11 -4 32 0 46 4 14 4 32 -1 40 -4 8
-4 21 1 29 4 7 4 23 0 36 -5 12 -6 25 -3 28 8 8 9 76 1 76 -4 0 -3 13 2 28 4
16 4 35 -1 43 -4 8 -4 21 1 29 4 7 4 23 0 36 -5 12 -6 25 -3 28 8 8 9 76 1 76
-4 0 -3 13 2 28 4 16 4 35 -1 43 -4 8 -4 21 1 29 4 7 4 24 0 36 -5 13 -5 26
-1 28 5 3 5 24 1 46 -7 39 -7 40 19 38 15 -1 31 1 37 4 5 4 16 3 24 -2 8 -5
21 -5 30 0 9 5 22 5 30 0 8 -5 21 -5 30 0 9 5 22 5 30 0 8 -5 21 -5 30 0 9 5
22 5 30 0 8 -5 21 -5 30 0 9 5 22 5 30 0 8 -5 21 -5 30 0 9 5 22 5 30 0 8 -5
21 -5 30 0 9 5 22 5 30 0 8 -5 21 -5 30 0 9 5 22 5 30 0 8 -5 21 -5 30 0 9 5
22 5 29 0 8 -4 27 -4 42 0 16 5 29 5 29 0 0 -5 13 -5 30 0 17 5 30 5 30 0 0
-5 13 -5 30 0 17 5 30 5 30 0 0 -5 13 -5 30 0 17 5 30 5 30 0 0 -5 13 -5 30 0
17 5 30 5 30 0 0 -5 13 -5 30 0 17 5 30 5 30 0 0 -5 13 -5 30 0 17 5 30 5 30
0 0 -5 13 -5 30 0 17 5 30 5 30 0 0 -5 13 -5 30 0 17 5 30 5 30 0 0 -5 13 -5
30 0 17 5 30 5 30 0 0 -5 13 -5 30 0 17 5 30 5 30 0 0 -5 13 -5 30 0 17 5 30
5 30 0 0 -5 13 -5 30 0 17 5 30 5 30 0 0 -5 13 -5 30 0 17 5 30 5 30 0 0 -5
13 -5 30 0 17 5 30 5 30 0 0 -5 13 -5 30 0 17 5 30 5 30 0 0 -5 13 -5 30 0 17
5 30 5 30 0 0 -5 13 -5 30 0 17 5 30 5 30 0 0 -5 13 -5 30 0 17 5 30 5 30 0 0
-5 13 -5 30 0 17 5 30 6 30 2 0 -4 32 -7 72 -7 65 0 74 -2 84 -22 6 -13 18
-31 26 -40 8 -10 37 -49 63 -88 141 -203 175 -251 184 -262 6 -7 11 -16 11
-22 0 -5 4 -11 8 -13 5 -1 33 -39 62 -83 30 -44 57 -82 61 -85 4 -3 15 -19 25
-35 11 -17 66 -97 124 -179 58 -81 110 -156 116 -167 6 -10 18 -27 27 -37 10
-10 17 -24 17 -30 0 -7 3 -12 8 -12 4 0 18 -18 32 -40 14 -22 28 -40 32 -40 5
0 8 -6 8 -13 0 -8 9 -22 20 -32 11 -10 20 -24 20 -30 0 -7 6 -18 14 -24 12
-10 68 -88 126 -176 28 -42 84 -120 89 -125 3 -3 24 -32 46 -65 22 -33 68 -99
103 -147 34 -48 62 -90 62 -93 0 -2 6 -13 14 -22 43 -52 86 -114 86 -123 0 -6
5 -10 10 -10 6 0 10 -6 10 -14 0 -8 4 -16 8 -18 4 -2 33 -39 64 -83 30 -45 72
-105 93 -135 21 -30 48 -68 59 -85 12 -16 23 -32 27 -35 3 -3 15 -22 28 -43
13 -21 28 -43 34 -50 7 -6 30 -39 53 -72 22 -33 72 -104 110 -158 38 -54 74
-105 79 -114 13 -22 21 -33 45 -62 11 -13 20 -28 20 -32 0 -5 35 -44 78 -87
111 -112 253 -182 380 -186 12 -1 22 -4 22 -8 0 -4 6 -6 13 -3 6 2 48 6 92 9
148 10 275 68 398 181 55 51 122 155 147 230 15 44 15 43 29 99 12 48 12 234
0 242 -5 3 -7 9 -4 14 14 22 -54 172 -123 270 -25 36 -70 101 -100 145 -31 44
-58 82 -61 85 -4 3 -18 23 -33 45 -14 22 -48 72 -75 110 -56 79 -176 250 -195
279 -7 10 -20 28 -29 40 -16 22 -75 106 -168 241 -30 44 -60 83 -65 87 -6 4
-8 8 -4 8 4 0 -4 12 -17 26 -14 15 -25 33 -25 40 0 7 -4 14 -8 16 -5 2 -30 35
-57 73 -27 39 -78 112 -114 163 -37 51 -70 101 -76 110 -5 9 -13 19 -16 22 -3
3 -30 41 -60 85 -30 44 -57 82 -61 83 -5 2 -8 10 -8 17 0 7 -3 15 -7 17 -10 4
-63 74 -63 82 0 3 -7 14 -15 23 -8 10 -61 85 -119 167 -127 182 -120 172 -183
261 -29 40 -53 76 -53 80 0 3 -9 15 -20 27 -21 22 -27 48 -11 48 5 0 30 10 57
22 27 12 51 23 54 23 3 0 55 26 116 58 107 55 164 89 251 148 23 16 46 29 51
29 6 0 12 3 14 8 2 4 34 30 71 57 38 28 78 59 90 70 12 11 45 38 72 60 125
100 330 323 459 497 104 142 249 398 318 563 41 96 50 120 54 134 2 9 13 43
24 76 22 63 68 222 76 265 3 14 7 32 9 40 3 8 7 33 10 55 4 22 8 48 11 57 9
29 20 107 31 218 9 80 10 477 2 537 -4 32 -10 83 -13 113 -3 30 -8 65 -10 76
-2 12 -7 39 -11 60 -11 73 -15 89 -45 204 -17 63 -35 131 -40 151 -5 20 -18
57 -29 83 -11 25 -20 47 -20 49 2 14 -78 203 -129 302 -142 279 -322 526 -543
745 -64 63 -131 128 -150 144 -41 35 -197 155 -229 176 -12 8 -28 21 -36 28
-7 6 -15 12 -17 12 -3 0 -45 25 -93 56 -87 54 -295 161 -384 198 -25 10 -58
24 -75 31 -16 7 -43 17 -60 21 -16 4 -34 10 -40 14 -24 17 -315 96 -390 106
-22 3 -56 9 -75 14 -19 5 -62 11 -94 15 -33 3 -73 8 -90 10 -17 3 -75 7 -129
9 -54 2 -101 6 -104 9 -3 3 -16 2 -29 -3 -13 -5 -26 -6 -29 0 -3 5 -18 5 -35
0 -17 -5 -30 -5 -30 0 0 5 -13 5 -30 0 -16 -5 -32 -5 -35 0 -3 4 -21 4 -40 0
-19 -4 -35 -4 -35 0 0 5 -13 5 -30 0 -17 -5 -30 -5 -30 0 0 5 -12 5 -27 2 -16
-4 -41 -6 -58 -5 -16 2 -36 3 -42 3 -7 0 -20 0 -28 0 -8 0 -23 0 -32 0 -10 0
-31 0 -48 1 -147 4 -345 3 -345 -3 0 -4 -13 -3 -28 2 -16 4 -35 4 -43 -1 -8
-4 -21 -4 -29 1 -7 4 -24 4 -36 0 -14 -6 -26 -5 -29 0 -3 6 -15 6 -30 0 -15
-6 -27 -6 -30 0 -3 6 -15 6 -30 0 -15 -6 -27 -6 -30 0 -3 6 -15 6 -30 0 -15
-6 -27 -6 -30 0 -3 6 -15 6 -30 0 -15 -6 -27 -6 -30 0 -3 6 -15 6 -30 0 -15
-6 -27 -6 -30 0 -3 6 -15 6 -30 0 -15 -6 -27 -6 -30 0 -3 6 -15 6 -30 0 -15
-6 -27 -6 -30 0 -3 6 -15 6 -30 0 -15 -6 -27 -6 -30 0 -3 6 -15 6 -30 0 -13
-5 -26 -6 -29 -2 -5 8 -80 6 -103 -2 -7 -3 -13 -1 -13 4 0 5 -13 5 -30 0 -16
-5 -32 -5 -35 0 -3 4 -21 4 -40 0 -19 -4 -35 -4 -35 0 0 5 -13 5 -30 0 -17 -5
-30 -5 -30 0 0 5 -13 5 -30 0 -17 -5 -30 -5 -30 0 0 5 -13 5 -30 0 -17 -5 -30
-5 -30 0 0 5 -13 5 -30 0 -16 -5 -32 -5 -35 0 -3 4 -21 4 -40 0 -19 -4 -35 -4
-35 0 0 5 -13 5 -29 0 -19 -5 -31 -5 -33 1 -2 6 -6 8 -9 5z m71 -1286 c22 4
40 4 40 0 0 -4 18 -4 40 0 22 4 40 4 40 0 0 -4 18 -4 40 0 22 4 40 4 40 0 0
-4 18 -4 40 0 22 4 40 4 40 0 0 -4 18 -4 40 0 22 4 40 4 40 0 0 -4 18 -4 40 0
23 4 40 3 40 -2 0 -5 4 -6 10 -3 8 5 59 7 155 5 11 -1 46 0 78 0 31 1 62 -2
67 -5 6 -3 10 -2 10 3 0 5 17 6 38 3 20 -4 56 -4 80 0 23 3 45 3 47 -1 3 -4
23 -4 45 0 22 4 40 5 40 1 0 -3 23 -6 50 -6 28 0 50 2 50 5 0 3 26 4 57 2 32
-2 76 -2 98 -2 22 1 64 2 93 3 28 1 52 0 52 -3 0 -3 21 -4 47 -3 71 3 106 3
128 3 11 -1 41 0 68 0 26 1 51 -1 56 -5 5 -3 12 -1 15 4 3 5 20 6 38 2 18 -4
54 -4 81 -1 26 4 49 4 52 2 3 -3 33 -4 68 -3 34 1 68 2 75 2 19 -1 61 -1 75 0
28 1 204 -12 227 -17 14 -3 32 -6 40 -6 24 0 210 -47 275 -69 103 -36 296
-137 394 -207 97 -69 296 -258 328 -312 9 -17 21 -30 25 -30 4 0 8 -6 8 -14 0
-8 4 -16 9 -18 11 -4 111 -164 111 -178 0 -5 5 -10 10 -10 6 0 10 -6 10 -13 0
-7 13 -39 29 -72 32 -65 87 -224 94 -273 3 -17 7 -35 10 -39 3 -5 8 -29 11
-54 3 -24 8 -55 12 -69 10 -42 12 -330 3 -405 -14 -114 -38 -220 -73 -323 -33
-96 -92 -232 -105 -242 -3 -3 -7 -11 -9 -19 -2 -7 -16 -33 -32 -57 -17 -23
-30 -47 -30 -53 0 -6 -4 -11 -10 -11 -5 0 -10 -7 -10 -15 0 -7 -6 -18 -13 -22
-7 -4 -27 -28 -44 -53 -33 -48 -170 -191 -243 -253 -148 -126 -437 -276 -602
-313 -10 -2 -28 -6 -40 -9 -13 -3 -34 -7 -48 -10 -14 -3 -36 -7 -50 -10 -74
-16 -354 -34 -364 -24 -3 3 -29 2 -58 -1 -29 -3 -82 -3 -117 0 -35 3 -88 3
-118 0 -29 -3 -53 -4 -53 -1 0 4 -30 5 -67 3 -75 -3 -70 -3 -166 -2 -37 0 -72
-2 -78 -5 -5 -4 -9 -3 -9 2 0 4 -30 7 -67 5 -75 -3 -70 -3 -166 -2 -37 0 -72
-2 -78 -5 -5 -4 -9 -3 -9 2 0 4 -30 7 -67 5 -75 -3 -70 -3 -166 -2 -37 0 -72
-2 -78 -5 -5 -4 -9 -3 -9 2 0 4 -30 7 -67 5 -82 -3 -97 -4 -243 -3 -8 0 -45 1
-83 3 -37 2 -67 1 -67 -2 0 -3 -38 -3 -85 0 -47 3 -85 3 -85 -1 0 -3 -24 -2
-53 1 -29 3 -64 3 -78 0 -13 -4 -37 -3 -54 0 -34 7 -46 41 -34 96 3 18 3 38
-2 45 -4 7 -4 20 0 28 5 8 5 27 1 43 -5 15 -5 28 0 28 4 0 5 15 1 33 -4 17 -4
46 -1 62 4 17 3 37 -1 46 -4 8 -4 21 1 28 4 8 4 25 0 40 -4 14 -4 35 0 46 4
11 4 27 0 35 -4 8 -4 24 0 35 4 11 4 31 0 45 -4 14 -5 34 -3 45 2 11 3 30 3
43 -1 27 0 48 1 65 0 6 0 23 0 37 -1 14 -1 32 0 40 0 8 0 26 0 40 -1 14 -1 32
-1 40 1 8 1 29 1 45 -1 17 -1 37 0 45 0 8 0 24 -1 35 0 11 0 27 1 35 0 8 0 26
0 40 -1 14 -1 32 0 40 0 8 0 26 0 40 -1 14 -1 46 -1 73 0 26 1 66 0 90 0 23 1
60 2 83 1 22 -1 44 -4 50 -3 5 -2 18 2 29 4 11 4 32 -1 48 -4 15 -5 27 -1 27
4 0 7 16 7 35 0 19 -3 35 -7 35 -4 0 -3 13 2 30 5 16 5 32 0 35 -5 3 -5 18 -1
33 5 15 5 36 1 47 -4 11 -4 32 0 46 4 15 4 32 0 40 -5 7 -5 20 0 28 4 8 4 25
0 37 -5 12 -6 25 -3 28 8 8 9 76 1 76 -4 0 -3 13 2 29 4 15 4 34 0 42 -5 7 -5
20 0 28 4 8 4 25 0 37 -5 12 -6 25 -3 28 8 8 9 76 1 76 -4 0 -3 13 2 29 4 15
4 34 0 42 -5 7 -5 20 0 28 4 8 5 24 0 35 -4 12 -4 30 0 41 4 11 4 32 -1 47 -4
14 -5 29 -3 31 8 7 9 106 2 113 -4 3 -3 16 1 28 5 11 5 30 1 41 -4 11 -5 24
-2 29 7 13 8 76 1 76 -4 0 -3 15 1 34 4 19 4 40 0 46 -4 7 -4 24 0 39 4 14 4
36 0 47 -5 11 -5 27 0 34 4 7 4 26 0 41 -5 16 -5 31 0 34 5 3 5 19 0 35 -8 26
-6 31 13 35 46 9 62 10 65 4 1 -3 21 -3 42 1z"/>
</g>
</svg>
